<svg width="640" height="479.99999999999994" xmlns="http://www.w3.org/2000/svg" xmlns:svg="http://www.w3.org/2000/svg">
 <!-- Created with SVG-edit - https://github.com/SVG-Edit/svgedit-->
 <defs>
  <filter height="200%" id="svg_27_blur" width="200%" x="-50%" y="-50%">
   <feGaussianBlur in="SourceGraphic" stdDeviation="10"/>
  </filter>
 </defs>
 <g class="layer">
  <title>Layer 1</title>
  <polygon cx="79.5" cy="146.5" fill="none" id="svg_4" orient="point" point="5" r="0" r2="0" shape="star" strokeWidth="5" strokecolor="#000000"/>
  <polygon cx="183.5" cy="194.5" fill="none" id="svg_5" orient="point" point="5" points="183.5,152.41542906110232 193.39467605877618,180.8811467637815 223.52480542692427,181.4951523789026 199.50992217076973,199.70193904843896 208.23669014694045,228.54713309054625 183.5,211.33382837555908 158.76330985305955,228.54713309054625 167.49007782923027,199.70193904843896 143.47519457307573,181.4951523789026 173.60532394122382,180.8811467637815 183.5,152.41542906110232 193.39467605877618,180.8811467637815 " r="42.084571" r2="16.833828" shape="star" stroke-width="5" strokeWidth="5" strokecolor="none"/>
  <polygon cx="179.5" cy="257.5" fill="none" id="svg_6" orient="point" point="5" r="0" r2="0" shape="star" strokeWidth="5" strokecolor="none"/>
  <polygon cx="189.5" cy="218.5" fill="none" id="svg_7" orient="point" point="5" r="0" r2="0" shape="star" strokeWidth="5" strokecolor="none"/>
  <polygon cx="189.5" cy="218.5" fill="none" id="svg_8" orient="point" point="5" r="0" r2="0" shape="star" strokeWidth="5" strokecolor="none"/>
  <polygon cx="189.5" cy="218.5" fill="none" id="svg_9" orient="point" point="5" r="0" r2="0" shape="star" strokeWidth="5" strokecolor="none"/>
  <polygon cx="280.5" cy="115.5" fill="none" id="svg_10" orient="point" point="5" r="0" r2="0" shape="star" strokeWidth="5" strokecolor="none"/>
  <path d="m292.951477,239.33963c0,-1.841766 0.000031,-2.42868 0,-3.430374c-0.000061,-1.09906 0.003296,-1.867355 -0.014038,-2.662399c-0.017944,-0.822266 -0.090271,-2.106552 -0.179138,-2.999771c-0.046356,-0.465958 -0.1698,-1.450745 -0.242584,-1.976639c-0.157379,-1.137177 -0.350555,-2.407883 -0.454498,-3.100861c-0.108978,-0.726608 -0.221954,-1.479996 -0.33255,-2.254044c-0.112457,-0.787048 -0.221588,-1.580902 -0.320435,-2.375336c-0.0979,-0.78688 -0.259094,-2.314255 -0.314575,-3.043793c-0.053986,-0.709869 -0.118713,-2.106384 -0.135651,-2.808624c-0.017273,-0.715561 -0.023743,-1.452835 -0.026276,-2.219681c-0.005463,-1.654968 -0.001801,-2.556381 -0.001801,-3.502243c0,-0.980911 0,-1.987427 0,-3.010117c0,-1.029419 0,-2.056152 0,-3.070755c0,-1.955078 0,-2.878372 0,-3.761902c0,-0.844452 0,-1.650497 0,-2.418793c0,-0.731247 0,-1.426102 0,-2.085251c0,-1.213837 0,-1.771118 0,-2.30278c0,-0.51416 0,-1.018875 0,-1.522247c0,-1.035034 -0.000092,-1.582886 0,-2.779648c0.000061,-0.66217 0.001709,-2.090302 0.007172,-2.837372c0.005524,-0.756531 0.014465,-1.513092 0.031342,-2.260117c0.016449,-0.728271 0.06604,-2.090805 0.11084,-2.707428c0.080444,-1.107346 0.186157,-2.070007 0.363892,-2.90094c0.234344,-1.095566 0.479156,-1.744751 0.738312,-2.383987c0.275757,-0.680176 0.621887,-1.424408 1.2034,-2.787399c0.223724,-0.524368 0.449036,-1.081543 0.956421,-2.246628c0.262817,-0.603516 0.530518,-1.213547 0.825806,-1.812332c0.866364,-1.756882 1.20282,-2.288452 1.526062,-2.808289c0.624176,-1.003799 0.953339,-1.470093 1.276733,-1.922287c0.920166,-1.286591 1.526306,-2.062698 1.822449,-2.434967c0.579132,-0.727997 1.17807,-1.424744 1.494263,-1.759888c0.972931,-1.031265 1.702942,-1.680664 2.069183,-2.001801c0.71756,-0.629196 1.407043,-1.212997 2.355438,-1.932159c0.769379,-0.583435 1.428253,-1.048981 2.267303,-1.444183c0.804321,-0.378845 1.464691,-0.581879 2.418579,-0.82132c0.798798,-0.200516 1.730591,-0.334869 2.812897,-0.309631c0.80014,0.018661 1.619934,0.115555 2.401611,0.285034c1.047272,0.227066 1.861237,0.565506 2.444092,1.094681c0.434875,0.394821 1.107819,1.276443 1.619476,2.042572c0.595123,0.891113 0.865204,1.422363 1.134766,1.993256c0.28656,0.606903 0.794647,1.98616 1.006195,2.756744c0.221344,0.80632 0.403351,1.652496 0.562988,2.521896c0.161469,0.879318 0.293274,1.764633 0.405334,2.643188c0.109711,0.860046 0.270386,2.491226 0.326691,3.243713c0.05307,0.709381 0.091858,1.381409 0.115234,2.020554c0.043762,1.197342 0.044312,1.765823 0.046722,2.319855c0.007111,1.623856 0.004517,2.165344 -0.005371,3.26236c-0.005035,0.559647 -0.027679,1.711365 -0.050323,2.307266c-0.047211,1.242905 -0.084442,1.892151 -0.183167,3.220688c-0.049469,0.665497 -0.106323,1.321365 -0.170837,1.959915c-0.121063,1.198441 -0.241241,2.24263 -0.397125,3.081757c-0.178131,0.958954 -0.372253,1.67717 -0.750336,2.689804c-0.2453,0.656967 -0.787598,1.641754 -1.172394,2.196091c-0.632599,0.911301 -1.115021,1.495926 -1.761017,2.35759c-0.56012,0.747131 -1.00058,1.438339 -1.684631,2.133881c-0.500305,0.508713 -1.288177,1.026947 -1.962036,1.594788c-0.612823,0.516403 -1.239899,1.377411 -1.74057,2.021561c-0.551117,0.709045 -1.192474,1.273087 -2.153412,1.72316c-0.740906,0.347031 -1.578339,0.635635 -2.351959,0.872971c-0.898376,0.27562 -1.490631,0.979187 -2.420044,1.287964c-0.795898,0.26442 -1.553619,0.512711 -1.148376,-0.177902c0.468689,-0.798782 1.1828,-1.363586 1.997528,-1.886673c0.686981,-0.441071 1.531738,-0.587311 2.46463,-0.606583c1.024719,-0.021164 1.831757,0 2.54538,0c0.958221,0 1.820892,-0.017548 2.912506,0.000107c0.74884,0.012115 1.732941,0.185593 2.372986,0.597382c0.720551,0.463562 1.26947,1.084763 1.901062,1.857254c0.55069,0.673553 1.094604,1.399109 1.513123,2.149933c0.490662,0.880234 0.701111,1.559723 0.965973,2.485504c0.218201,0.76265 0.435394,1.617386 0.718658,2.568405c0.207611,0.697037 0.558685,1.765564 0.75708,2.45755c0.333435,1.163101 0.454071,1.809326 0.478333,2.820969c0.017792,0.741928 0,1.678345 0,2.558853c0,1.018875 0,1.725067 0,2.4151c0,1.208435 0,2.121292 0,3.021561c0,0.876907 0.182678,1.717239 -0.192261,2.694519c-0.323944,0.844391 -0.856445,1.355515 -1.222839,2.433853c-0.2258,0.664597 -0.300446,1.392502 -0.808624,2.352081c-0.451782,0.853073 -0.92215,1.507431 -1.496521,2.282913c-0.52066,0.702942 -0.94281,1.396118 -1.670593,2.119827c-0.607971,0.604568 -1.28656,1.152924 -1.854889,1.806381c-0.565674,0.650391 -1.287994,1.054749 -1.915649,1.791107c-0.541992,0.635864 -1.066833,1.526367 -1.732605,2.017975c-0.662689,0.489319 -1.515686,0.987488 -2.140259,1.581757c-0.621368,0.591232 -1.345886,1.160141 -2.024597,1.585358c-0.820892,0.514282 -1.625946,0.95192 -2.475403,1.212936c-0.680206,0.209 -1.659943,0.548889 -2.46756,0.876007c-0.857697,0.347397 -1.667725,0.615997 -2.5867,0.876007c-0.741791,0.209869 -1.502136,0.396774 -2.464294,0.673752c-0.864502,0.248856 -1.789795,0.489319 -2.575226,0.606583c-0.958588,0.143112 -1.648376,0.440125 -2.716095,0.616348c-0.860535,0.142029 -1.56604,0.06015 -2.732361,0.057388c-0.626465,-0.00148 -1.651794,-0.002548 -2.334137,-0.057388c-1.212128,-0.097412 -1.979645,-0.213135 -2.88678,-0.728668c-0.676697,-0.384567 -1.246338,-0.967667 -1.923645,-1.50943c-0.588623,-0.470825 -1.296844,-1.067444 -2.058289,-1.954407c-0.600494,-0.699478 -0.88208,-1.100159 -1.462799,-1.912613c-0.289734,-0.405365 -1.079285,-1.580566 -1.503143,-2.290207c-0.378387,-0.633484 -0.839111,-1.510208 -1.250702,-2.328842c-0.412201,-0.819839 -0.701874,-1.403885 -1.193146,-2.386353c-0.379181,-0.758301 -0.808807,-1.612244 -1.259674,-2.533691c-0.230011,-0.470078 -0.678223,-1.404266 -0.880493,-1.861633c-0.548309,-1.239914 -0.81012,-1.96875 -1.141052,-2.990112c-0.225372,-0.695557 -0.608887,-1.87648 -0.760132,-2.319855c-0.326569,-0.957321 -0.50647,-1.465698 -0.826599,-2.552795c-0.16684,-0.566513 -0.470795,-1.749268 -0.697205,-2.987198c-0.114441,-0.625748 -0.205139,-1.255524 -0.289093,-1.882065c-0.164368,-1.226776 -0.219421,-1.822556 -0.432373,-3.47406c-0.064636,-0.501373 -0.197296,-1.437103 -0.336945,-2.296158c-0.130249,-0.801285 -0.338379,-1.924911 -0.468658,-2.639496c-0.125275,-0.687057 -0.305023,-1.665359 -0.392975,-2.588501c-0.087067,-0.913895 -0.093811,-1.59169 -0.138367,-2.369492c-0.083191,-1.451828 -0.134277,-2.018005 -0.18103,-2.615677c-0.098267,-1.256134 -0.150574,-1.898178 -0.198547,-2.539078c-0.047272,-0.631332 -0.158936,-2.389801 -0.180145,-2.915329c-0.039063,-0.968338 -0.053131,-1.845444 -0.05661,-2.652283c-0.004852,-1.12645 -0.000916,-1.864105 -0.000916,-2.639496c0,-0.856247 -0.000305,-2.386566 0.000122,-2.981354c0.000458,-0.632523 -0.00174,-1.293396 0.013916,-2.66217c0.007874,-0.689163 0.016968,-1.36908 0.043488,-2.029648c0.071411,-1.778458 0.120422,-2.288315 0.236298,-3.20575c0.104736,-0.829239 0.25238,-1.61084 0.44754,-2.813232c0.142242,-0.876404 0.210571,-1.349197 0.361084,-2.378143c0.082367,-0.563126 0.166321,-1.163773 0.462036,-3.218445c0.110565,-0.768173 0.226746,-1.566177 0.35376,-2.38443c0.129028,-0.831131 0.265015,-1.66568 0.414429,-2.493607c0.147156,-0.815399 0.468018,-2.36795 0.646576,-3.087372c0.169525,-0.683075 0.350311,-1.325119 0.534698,-1.927567c0.173706,-0.567551 0.522675,-1.587891 0.978424,-2.854446c0.245361,-0.6819 0.552643,-1.556656 0.72879,-2.11557c0.397919,-1.262558 0.604401,-2.024124 0.857574,-2.811981c0.250519,-0.779587 0.630798,-1.826309 0.930267,-2.358154c0.514099,-0.913055 1.196564,-1.80722 1.539978,-2.399826c0.385254,-0.664841 0.771729,-1.398438 1.212921,-2.142853c0.448212,-0.756256 0.930603,-1.485153 1.441162,-2.171616c0.494415,-0.664749 0.987946,-1.28511 1.946991,-2.349503c0.430237,-0.477493 1.065247,-1.11972 1.674744,-1.732254c0.603455,-0.606476 1.211365,-1.193283 1.909271,-2.021561c0.494537,-0.586929 0.983337,-1.412094 1.730438,-2.042236c0.657562,-0.554626 1.540833,-0.986511 2.172302,-1.369156c0.513519,-0.311172 1.485535,-0.861206 2.288635,-1.284027c0.883972,-0.465393 1.34668,-0.696762 2.272552,-1.163528c0.452179,-0.227966 1.695587,-0.855881 2.410736,-1.203842c0.930573,-0.452774 1.487488,-0.724304 2.580841,-1.101639c0.814423,-0.281067 1.67746,-0.506683 2.574036,-0.812103c0.942932,-0.321213 1.544617,-0.61235 2.726074,-0.906677c0.751343,-0.18718 1.471588,-0.217422 2.470795,-0.224609c0.857117,-0.006165 1.762817,0 2.357605,0c1.078156,0 2.034119,0 3.033234,0c0.854095,0 1.445984,0 2.300079,0c1.136353,0 1.977539,0 3.032349,0c0.616577,0 1.776276,0 2.515167,0c0.708557,0 1.853546,-0.123947 2.788513,0.001801c0.841614,0.11319 1.570923,0.739014 2.391754,1.121292c0.735931,0.342743 1.520416,0.797958 2.121277,1.45462c0.600403,0.656143 1.000092,1.597839 1.500671,2.153305c0.618073,0.685837 1.243439,1.146088 1.881195,2.007523c0.472839,0.638657 0.695709,1.626465 0.860168,2.406677c0.185577,0.880264 0.508514,1.701279 0.724731,2.307602c0.440948,1.236572 0.616394,1.832336 0.871857,2.641968c0.337982,1.071121 0.802856,1.78157 1.226959,2.52359c0.381348,0.667206 0.709717,1.529007 0.953278,2.404984c0.249725,0.898102 0.654022,1.653641 0.80954,2.575012c0.143188,0.848312 0.269836,1.783798 0.539093,2.580414c0.271942,0.80452 0.410095,1.87854 0.574097,2.463623c0.281036,1.002548 0.524078,1.682648 0.740356,2.670258c0.179352,0.819031 0.189819,1.720276 0.46225,2.724274c0.197052,0.726181 0.407745,1.688004 0.548523,2.554245c0.145111,0.892929 0.358215,1.585785 0.504944,2.627136c0.120392,0.854538 0.234619,1.847076 0.407562,2.539093c0.172943,0.692017 0.640472,1.633347 0.88446,2.583099c0.225311,0.876999 0.119263,1.777603 0.30368,2.594788c0.16745,0.741943 0.408478,1.776672 0.517975,2.578064c0.134552,0.984833 0.347168,1.654999 0.526031,2.688782c0.150085,0.867508 0.112305,1.796951 0.112305,2.631073c0,0.933167 -0.084229,1.830978 0.007202,2.706757c0.096313,0.922714 0.438171,1.607056 0.584778,2.613434c0.112976,0.775528 0.081879,1.723389 0.081879,2.710129c0,0.729782 -0.10498,1.693649 0.191376,2.556946c0.294067,0.856567 0.482025,1.617249 0.482483,2.617249c0.000397,0.876007 -0.100189,1.705215 0.007202,2.577713c0.120026,0.97525 0.6474,1.666931 0.666656,2.543579c0.020721,0.943176 0,1.808624 0,2.678345l0,0.936218" fill="none" id="svg_20" opacity="0.8" stroke="#000000" stroke-dasharray="null" stroke-linecap="null" stroke-linejoin="null" stroke-width="9"/>
  <path d="0" fill="none" id="svg_21" opacity="0.75" stroke-dasharray="null" stroke-linecap="null" stroke-linejoin="null" stroke-width="9"/>
  <polygon cx="344.164426" cy="187.452832" edge="0" fill="none" id="svg_22" opacity="0.75" orient="x" shape="regularPoly" sides="5" strokeWidth="9" strokecolor="none"/>
  <path d="0" fill="none" id="svg_23" opacity="0.75" stroke-dasharray="null" stroke-linecap="null" stroke-linejoin="null" stroke-width="9"/>
  <polygon cx="340.795154" cy="172.628034" edge="0" fill="none" id="svg_24" opacity="0.75" orient="x" shape="regularPoly" sides="5" strokeWidth="9" strokecolor="none"/>
  <polygon cx="340.795154" cy="172.628034" edge="135.444773" fill="none" id="svg_25" opacity="0.75" orient="x" points="456.0113589549537,172.62803363800046 376.3989190944147,282.2051565066449 247.58328547275568,240.35041996024614 247.58328547275568,104.9056473157548 376.3989190944147,63.05091076935598 456.0113589549537,172.62803363800043 " shape="regularPoly" sides="5" stroke-width="9" strokeWidth="9" strokecolor="none"/>
  <polygon cx="340.795154" cy="173.301888" edge="0" fill="none" id="svg_26" opacity="0.75" orient="x" shape="regularPoly" sides="5" strokeWidth="9" strokecolor="none"/>
  <polygon cx="340.795154" cy="173.301888" edge="0" fill="none" filter="url(#svg_27_blur)" id="svg_27" opacity="0.75" orient="x" shape="regularPoly" sides="5" strokeWidth="9" strokecolor="none"/>
  <polygon cx="313.16712" cy="86.374661" edge="0" fill="none" id="svg_28" opacity="0.75" orient="x" shape="regularPoly" sides="5" strokeWidth="9" strokecolor="none"/>
  <polygon cx="347.533698" cy="216.428574" edge="0" fill="none" id="svg_29" opacity="0.75" orient="x" shape="regularPoly" sides="5" strokeWidth="9" strokecolor="none"/>
  <polygon cx="-33.194077" cy="219.123992" edge="0" fill="none" id="svg_30" opacity="0.75" orient="x" shape="regularPoly" sides="5" strokeWidth="9" strokecolor="none"/>
 </g>
</svg>
